<svg width="1081" height="1080" viewBox="0 0 1081 1080" fill="none" xmlns="http://www.w3.org/2000/svg">
<g clip-path="url(#clip0_2005_166)">
<rect x="0.5" y="1" width="1080" height="1080" fill="url(#paint0_linear_2005_166)"/>
<path fill-rule="evenodd" clip-rule="evenodd" d="M540.5 902.521C740.427 902.521 902.5 740.663 902.5 541C902.5 341.337 740.427 179.479 540.5 179.479C340.573 179.479 178.5 341.337 178.5 541C178.5 740.663 340.573 902.521 540.5 902.521ZM540.5 918.5C749.264 918.5 918.5 749.487 918.5 541C918.5 332.512 749.264 163.5 540.5 163.5C331.736 163.5 162.5 332.512 162.5 541C162.5 749.487 331.736 918.5 540.5 918.5ZM792.42 544.055C792.473 541.878 792.5 539.695 792.5 537.505C792.5 464.621 762.831 398.659 714.897 351.004C710.447 335.807 697.197 324.362 681.028 322.543C638.074 292.189 585.623 274.353 529 274.353C391.724 274.353 278.965 379.19 266.621 513.067C266.084 513.047 265.543 513.037 265 513.037C259.827 513.037 254.894 513.962 250.344 515.646C261.509 371.703 382.002 258.374 529 258.374C683.364 258.374 808.5 383.345 808.5 537.505C808.5 542.917 808.346 548.293 808.041 553.629C803.165 549.977 797.938 546.766 792.42 544.055ZM789.172 579.446C794.403 583.412 799.029 588.134 802.885 593.448C795.066 631.831 779.36 667.352 757.53 698.249C752.897 698.84 748.123 698.951 743.264 698.53L737.792 698.056C763.994 664.121 782.087 623.619 789.172 579.446ZM668.5 407.312C674.19 412.729 679.536 418.504 684.5 424.601V451.119H683.909C679.297 443.824 674.142 436.907 668.5 430.423V407.312ZM608.619 369.069C587.595 360.792 564.689 356.245 540.72 356.245C440.844 356.245 359.431 435.192 355.638 534.009H371.651C375.434 444.02 449.681 372.224 540.72 372.224C557.831 372.224 574.349 374.76 589.918 379.477C594.9 374.339 601.363 370.641 608.619 369.069ZM656.5 417.971C649.525 411.433 641.994 405.479 633.986 400.187H651.5C651.842 400.187 652.177 400.221 652.5 400.286C654.782 400.749 656.5 402.764 656.5 405.18V417.971ZM567.489 446.766C559.066 444.397 550.181 443.13 541 443.13C489.336 443.13 447.058 483.259 443.713 534.009H459.755C463.067 492.093 498.177 459.108 541 459.108C543.2 459.108 545.38 459.196 547.536 459.366C553.7 454.506 560.383 450.274 567.489 446.766ZM622.16 547.991C622.385 545.524 622.5 543.026 622.5 540.501C622.5 512.484 608.326 487.774 586.748 473.131C592.825 470.639 599.272 468.863 605.984 467.909C625.94 485.739 638.5 511.655 638.5 540.501C638.5 543.021 638.404 545.519 638.216 547.991H622.16ZM463.569 565.967C474.273 598.446 504.895 621.893 541 621.893C577.105 621.893 607.727 598.446 618.431 565.967H635.132C623.922 607.392 586.025 637.872 541 637.872C495.975 637.872 458.078 607.392 446.868 565.967H463.569ZM373.301 565.967H357.143C362.489 605.896 380.59 641.795 407.22 669.441L433.153 671.686C401.528 645.65 379.531 608.367 373.301 565.967ZM624.247 688.227L650.156 690.47C689.815 661.419 717.467 616.983 724.297 565.967H708.139C700.431 618.421 668.595 663.042 624.247 688.227ZM709.807 547.991H710.5V489.895C710.5 487.52 710.136 485.23 709.462 483.077C707.096 475.529 700.907 469.67 693.16 467.761C703.912 489.974 709.94 514.894 709.94 541.22C709.94 543.487 709.895 545.745 709.807 547.991ZM595.89 717.85L455.969 705.738C481.365 718.813 510.179 726.195 540.72 726.195C559.934 726.195 578.464 723.273 595.89 717.85ZM294.036 656.737C290.681 650.155 287.595 643.413 284.792 636.526C282.208 638.827 279.208 640.673 275.92 641.938C275.996 642.04 276.072 642.141 276.149 642.243C276.249 642.376 276.35 642.508 276.452 642.64C277.271 643.702 278.134 644.728 279.038 645.716C282.168 649.137 285.795 652.102 289.81 654.496C291.175 655.311 292.586 656.059 294.036 656.737ZM271.566 593.903C274.264 606.246 277.83 618.264 282.197 629.892C279.911 632.595 276.999 634.751 273.683 636.137C272.46 636.649 271.181 637.056 269.859 637.346C269.259 637.478 268.651 637.586 268.035 637.669C262.753 623.952 258.523 609.713 255.446 595.051C257.023 594.312 258.7 593.75 260.45 593.391C261.92 593.089 263.441 592.931 265 592.931C265.167 592.931 265.334 592.933 265.5 592.937C266.961 592.968 268.389 593.139 269.769 593.437C270.377 593.568 270.977 593.724 271.566 593.903ZM265.605 545.012C266 559.075 267.499 572.862 270.019 586.29C269.137 586.152 268.241 586.054 267.333 585.997C266.727 585.96 266.116 585.94 265.5 585.94C265.333 585.94 265.166 585.942 265 585.945C264.889 585.947 264.778 585.949 264.667 585.952C262.684 586.008 260.751 586.263 258.887 586.697L254.971 556.385C254.907 555.887 254.88 555.393 254.888 554.907C254.894 554.533 254.921 554.164 254.968 553.801C255.595 548.898 259.791 544.995 265 544.995C265.203 544.995 265.405 545.001 265.605 545.012ZM271.34 645.859C271.003 645.062 270.67 644.263 270.341 643.462C270.566 643.424 270.791 643.384 271.014 643.341L271.34 645.859ZM300.516 698.315C301.705 696.456 302.751 694.501 303.64 692.465C304.87 692.629 306.11 692.766 307.359 692.874L316.917 693.701C364.906 758.581 442.033 800.656 529 800.656C599.583 800.656 663.684 772.941 710.986 727.813L731.774 729.613C680.843 783.212 608.83 816.635 529 816.635C434.594 816.635 351.119 769.891 300.516 698.315Z" fill="#FFD700"/>
<path fill-rule="evenodd" clip-rule="evenodd" d="M676.5 354.5C672.082 354.5 668.5 358.071 668.5 362.477V451.221H684.5V362.477C684.5 358.071 680.918 354.5 676.5 354.5ZM687.673 467.175C700.28 467.175 710.5 477.366 710.5 489.937V547.942H536.5C536.5 503.336 572.765 467.175 617.5 467.175H687.673ZM611.5 405.353C611.5 402.6 613.739 400.368 616.5 400.368H651.5C654.261 400.368 656.5 402.6 656.5 405.353V451.221H611.5V405.353ZM265 544.951C258.902 544.951 254.191 550.293 254.971 556.323L258.887 586.588C261.011 586.094 263.225 585.833 265.5 585.833C267.43 585.833 269.316 586.021 271.14 586.379L275.029 556.323C275.809 550.293 271.098 544.951 265 544.951ZM275.92 641.743C286.788 637.569 294.5 627.057 294.5 614.749C294.5 601.891 286.083 590.993 274.443 587.234C282.969 574.387 297.592 565.89 314.24 565.89H749.006C785.73 565.89 815.5 595.575 815.5 632.193C815.5 671.07 782.108 701.605 743.264 698.247L310.122 660.811C296.043 659.594 283.81 652.352 275.92 641.743ZM259.012 642.94C261.098 643.415 263.27 643.666 265.5 643.666C267.386 643.666 269.229 643.487 271.014 643.144L275.029 674.173C275.809 680.203 271.098 685.545 265 685.545C258.902 685.545 254.191 680.203 254.971 674.173L259.012 642.94ZM287.5 615.248C287.5 627.639 277.426 637.683 265 637.683C252.574 637.683 242.5 627.639 242.5 615.248C242.5 602.857 252.574 592.813 265 592.813C277.426 592.813 287.5 602.857 287.5 615.248Z" fill="white"/>
</g>
<defs>
<linearGradient id="paint0_linear_2005_166" x1="162.777" y1="540.999" x2="943.651" y2="540.999" gradientUnits="userSpaceOnUse">
<stop stop-color="#454C8A"/>
<stop offset="1" stop-color="#0D1341"/>
</linearGradient>
<clipPath id="clip0_2005_166">
<rect x="0.5" y="0.5" width="1080" height="1079" rx="164" fill="white"/>
</clipPath>
</defs>
</svg>
