<svg width="1081" height="1080" viewBox="0 0 1081 1080" fill="none" xmlns="http://www.w3.org/2000/svg">
<g clip-path="url(#clip0_2001_170)">
<path fill-rule="evenodd" clip-rule="evenodd" d="M1057.64 540C1057.64 825.61 826.11 1057.14 540.5 1057.14C254.89 1057.14 23.3571 825.61 23.3571 540C23.3571 254.39 254.89 22.8571 540.5 22.8571C826.11 22.8571 1057.64 254.39 1057.64 540ZM1080.5 540C1080.5 838.234 838.734 1080 540.5 1080C242.266 1080 0.5 838.234 0.5 540C0.5 241.766 242.266 0 540.5 0C838.734 0 1080.5 241.766 1080.5 540ZM900.5 535C900.5 538.133 900.462 541.256 900.386 544.371C908.268 548.248 915.736 552.841 922.702 558.065C923.137 550.432 923.357 542.742 923.357 535C923.357 314.481 744.591 135.714 524.071 135.714C314.074 135.714 141.941 297.827 125.992 503.733C132.491 501.322 139.538 500 146.929 500C147.704 500 148.476 500.015 149.244 500.043C166.879 308.536 327.962 158.571 524.071 158.571C604.961 158.571 679.892 184.085 741.254 227.505C764.352 230.107 783.281 246.479 789.639 268.218C858.116 336.386 900.5 430.743 900.5 535ZM915.336 615.025C909.827 607.423 903.219 600.669 895.745 594.996C879.804 582.895 859.924 575.714 838.366 575.714H803.067H779.984H675.688H651.83H430.598H406.741H301.645H278.562H217.271C193.488 575.714 172.599 587.888 160.419 606.293C177.047 611.679 189.071 627.292 189.071 645.714C189.071 658.013 183.713 669.059 175.203 676.647C171.511 679.938 167.226 682.579 162.529 684.388C162.637 684.534 162.746 684.679 162.855 684.824C162.999 685.014 163.143 685.204 163.289 685.393C164.459 686.911 165.691 688.379 166.983 689.793C171.455 694.685 176.636 698.927 182.371 702.352C184.322 703.517 186.336 704.588 188.409 705.558C195.474 708.863 203.213 710.998 211.389 711.706L350.099 723.73L387.148 726.941L660.139 750.603L697.152 753.812L822.345 764.663L830.163 765.341C837.105 765.943 843.924 765.785 850.543 764.938C896.842 759.02 933.357 719.437 933.357 670.705C933.357 649.907 926.673 630.67 915.336 615.025ZM745.371 411.429H723.357V381.823V348.764V284.286C723.357 277.974 728.474 272.857 734.786 272.857C741.098 272.857 746.214 277.974 746.214 284.286V373.496V411.429H745.371ZM540.814 275.714C575.056 275.714 607.778 282.218 637.813 294.059C627.447 296.307 618.215 301.597 611.097 308.947C588.856 302.2 565.259 298.571 540.814 298.571C410.759 298.571 304.691 401.273 299.288 530H276.412C281.83 388.646 398.134 275.714 540.814 275.714ZM700.5 338.714C700.038 338.621 699.561 338.571 699.071 338.571H674.052H649.071C645.127 338.571 641.929 341.769 641.929 345.714V411.429H706.214V364.011V345.714C706.214 342.259 703.76 339.376 700.5 338.714ZM541.214 400C554.33 400 567.023 401.813 579.056 405.202C568.905 410.22 559.357 416.274 550.551 423.226C547.471 422.982 544.357 422.857 541.214 422.857C480.038 422.857 429.882 470.04 425.151 530H402.233C407.012 457.404 467.409 400 541.214 400ZM634.049 435.446C624.46 436.811 615.25 439.351 606.569 442.916C564.447 460.215 534.786 501.644 534.786 550H657.156H680.094H782.367H783.357V466.896C783.357 463.498 782.838 460.222 781.874 457.143C778.494 446.347 769.653 437.965 758.586 435.234C756.075 434.614 753.449 434.286 750.747 434.286H650.5C644.915 434.286 639.422 434.681 634.049 435.446ZM419.741 775.652L619.629 792.978C594.735 800.735 568.263 804.914 540.814 804.914C497.185 804.914 456.021 794.355 419.741 775.652ZM156.308 615.676C169.485 619.69 179.071 631.94 179.071 646.429C179.071 654.327 176.222 661.561 171.496 667.157C168.231 671.023 164.07 674.107 159.333 676.09C157.585 676.822 155.759 677.404 153.87 677.82C153.013 678.009 152.144 678.163 151.264 678.282C149.846 678.473 148.399 678.571 146.929 678.571C129.177 678.571 114.786 664.181 114.786 646.429C114.786 633.556 122.352 622.451 133.281 617.319C135.533 616.261 137.928 615.457 140.429 614.943C142.528 614.512 144.702 614.286 146.929 614.286C147.167 614.286 147.405 614.288 147.643 614.293C149.731 614.339 151.769 614.584 153.741 615.009C154.61 615.197 155.467 615.419 156.308 615.676ZM147.793 545.74C156.08 546.226 162.333 553.656 161.255 562.008L155.7 605.069C155.17 604.964 154.636 604.87 154.099 604.786C152.838 604.588 151.558 604.448 150.262 604.367C149.396 604.313 148.522 604.286 147.643 604.286C147.404 604.286 147.166 604.288 146.929 604.292C146.77 604.294 146.611 604.298 146.453 604.302C143.62 604.382 140.859 604.747 138.196 605.368L132.602 562.008C132.51 561.295 132.471 560.589 132.483 559.893C132.492 559.359 132.53 558.831 132.597 558.311C133.493 551.298 139.488 545.714 146.929 545.714C147.219 545.714 147.507 545.723 147.793 545.74ZM155.985 689.997L161.255 730.849C162.37 739.489 155.64 747.143 146.929 747.143C138.217 747.143 131.487 739.489 132.602 730.849L138.375 686.102C141.354 686.783 144.457 687.143 147.643 687.143C149.999 687.143 152.309 686.946 154.558 686.568C154.699 686.545 154.84 686.52 154.98 686.495C155.161 686.463 155.341 686.429 155.52 686.395L155.985 689.997ZM202.128 756.665C200.859 759.577 199.365 762.374 197.666 765.033C269.956 867.421 389.205 934.286 524.071 934.286C638.114 934.286 740.99 886.475 813.748 809.804L784.052 807.23C716.477 871.783 624.904 911.429 524.071 911.429C399.833 911.429 289.652 851.241 221.096 758.433L207.441 757.25C205.657 757.095 203.886 756.9 202.128 756.665Z" fill="url(#paint0_linear_2001_170)"/>
</g>
<defs>
<linearGradient id="paint0_linear_2001_170" x1="162.777" y1="539.999" x2="943.651" y2="539.999" gradientUnits="userSpaceOnUse">
<stop stop-color="#4BA1F2"/>
<stop offset="1" stop-color="#1E89EF"/>
</linearGradient>
<clipPath id="clip0_2001_170">
<rect width="1080" height="1080" fill="white" transform="translate(0.5)"/>
</clipPath>
</defs>
</svg>
