<svg width="1081" height="1080" viewBox="0 0 1081 1080" fill="none" xmlns="http://www.w3.org/2000/svg">
<g clip-path="url(#clip0_2005_132)">
<path d="M1080.5 539.5C1080.5 837.458 838.734 1079 540.5 1079C242.266 1079 0.5 837.458 0.5 539.5C0.5 241.542 242.266 0 540.5 0C838.734 0 1080.5 241.542 1080.5 539.5Z" fill="url(#paint0_linear_2005_132)"/>
<path fill-rule="evenodd" clip-rule="evenodd" d="M540.5 902.021C740.427 902.021 902.5 740.163 902.5 540.5C902.5 340.837 740.427 178.979 540.5 178.979C340.573 178.979 178.5 340.837 178.5 540.5C178.5 740.163 340.573 902.021 540.5 902.021ZM540.5 918C749.264 918 918.5 748.987 918.5 540.5C918.5 332.012 749.264 163 540.5 163C331.736 163 162.5 332.012 162.5 540.5C162.5 748.987 331.736 918 540.5 918ZM792.42 543.555C792.473 541.378 792.5 539.195 792.5 537.005C792.5 464.121 762.831 398.159 714.897 350.504C710.447 335.307 697.197 323.862 681.028 322.043C638.074 291.689 585.623 273.853 529 273.853C391.724 273.853 278.965 378.69 266.621 512.567C266.084 512.547 265.543 512.537 265 512.537C259.827 512.537 254.894 513.462 250.344 515.146C261.509 371.203 382.002 257.874 529 257.874C683.364 257.874 808.5 382.845 808.5 537.005C808.5 542.417 808.346 547.793 808.041 553.129C803.165 549.477 797.938 546.266 792.42 543.555ZM789.172 578.946C794.403 582.912 799.029 587.634 802.885 592.948C795.066 631.331 779.36 666.852 757.53 697.749C752.897 698.34 748.123 698.451 743.264 698.03L737.792 697.556C763.994 663.621 782.087 623.119 789.172 578.946ZM668.5 406.812C674.19 412.229 679.536 418.004 684.5 424.101V450.619H683.909C679.297 443.324 674.142 436.407 668.5 429.923V406.812ZM608.619 368.569C587.595 360.292 564.689 355.745 540.72 355.745C440.844 355.745 359.431 434.692 355.638 533.509H371.651C375.434 443.52 449.681 371.724 540.72 371.724C557.831 371.724 574.349 374.26 589.918 378.977C594.9 373.839 601.363 370.141 608.619 368.569ZM656.5 417.471C649.525 410.933 641.994 404.979 633.986 399.687H651.5C651.842 399.687 652.177 399.721 652.5 399.786C654.782 400.249 656.5 402.264 656.5 404.68V417.471ZM567.489 446.266C559.066 443.897 550.181 442.63 541 442.63C489.336 442.63 447.058 482.759 443.713 533.509H459.755C463.067 491.593 498.177 458.608 541 458.608C543.2 458.608 545.38 458.696 547.536 458.866C553.7 454.006 560.383 449.774 567.489 446.266ZM622.16 547.491C622.385 545.024 622.5 542.526 622.5 540.001C622.5 511.984 608.326 487.274 586.748 472.631C592.825 470.139 599.272 468.363 605.984 467.409C625.94 485.239 638.5 511.155 638.5 540.001C638.5 542.521 638.404 545.019 638.216 547.491H622.16ZM463.569 565.467C474.273 597.946 504.895 621.393 541 621.393C577.105 621.393 607.727 597.946 618.431 565.467H635.132C623.922 606.892 586.025 637.372 541 637.372C495.975 637.372 458.078 606.892 446.868 565.467H463.569ZM373.301 565.467H357.143C362.489 605.396 380.59 641.295 407.22 668.941L433.153 671.186C401.528 645.15 379.531 607.867 373.301 565.467ZM624.247 687.727L650.156 689.97C689.815 660.919 717.467 616.483 724.297 565.467H708.139C700.431 617.921 668.595 662.542 624.247 687.727ZM709.807 547.491H710.5V489.395C710.5 487.02 710.136 484.73 709.462 482.577C707.096 475.029 700.907 469.17 693.16 467.261C703.912 489.474 709.94 514.394 709.94 540.72C709.94 542.987 709.895 545.245 709.807 547.491ZM595.89 717.35L455.969 705.238C481.365 718.313 510.179 725.695 540.72 725.695C559.934 725.695 578.464 722.773 595.89 717.35ZM294.036 656.237C290.681 649.655 287.595 642.913 284.792 636.026C282.208 638.327 279.208 640.173 275.92 641.438C275.996 641.54 276.072 641.641 276.149 641.743C276.249 641.876 276.35 642.008 276.452 642.14C277.271 643.202 278.134 644.228 279.038 645.216C282.168 648.637 285.795 651.602 289.81 653.996C291.175 654.811 292.586 655.559 294.036 656.237ZM271.566 593.403C274.264 605.746 277.83 617.764 282.197 629.392C279.911 632.095 276.999 634.251 273.683 635.637C272.46 636.149 271.181 636.556 269.859 636.846C269.259 636.978 268.651 637.086 268.035 637.169C262.753 623.452 258.523 609.213 255.446 594.551C257.023 593.812 258.7 593.25 260.45 592.891C261.92 592.589 263.441 592.431 265 592.431C265.167 592.431 265.334 592.433 265.5 592.437C266.961 592.468 268.389 592.639 269.769 592.937C270.377 593.068 270.977 593.224 271.566 593.403ZM265.605 544.512C266 558.575 267.499 572.362 270.019 585.79C269.137 585.652 268.241 585.554 267.333 585.497C266.727 585.46 266.116 585.44 265.5 585.44C265.333 585.44 265.166 585.442 265 585.445C264.889 585.447 264.778 585.449 264.667 585.452C262.684 585.508 260.751 585.763 258.887 586.197L254.971 555.885C254.907 555.387 254.88 554.893 254.888 554.407C254.894 554.033 254.921 553.664 254.968 553.301C255.595 548.398 259.791 544.495 265 544.495C265.203 544.495 265.405 544.501 265.605 544.512ZM271.34 645.359C271.003 644.562 270.67 643.763 270.341 642.962C270.566 642.924 270.791 642.884 271.014 642.841L271.34 645.359ZM300.516 697.815C301.705 695.956 302.751 694.001 303.64 691.965C304.87 692.129 306.11 692.266 307.359 692.374L316.917 693.201C364.906 758.081 442.033 800.156 529 800.156C599.583 800.156 663.684 772.441 710.986 727.313L731.774 729.113C680.843 782.712 608.83 816.135 529 816.135C434.594 816.135 351.119 769.391 300.516 697.815Z" fill="#FFD700"/>
<path fill-rule="evenodd" clip-rule="evenodd" d="M676.5 354C672.082 354 668.5 357.571 668.5 361.977V450.721H684.5V361.977C684.5 357.571 680.918 354 676.5 354ZM687.673 466.675C700.28 466.675 710.5 476.866 710.5 489.437V547.442H536.5C536.5 502.836 572.765 466.675 617.5 466.675H687.673ZM611.5 404.853C611.5 402.1 613.739 399.868 616.5 399.868H651.5C654.261 399.868 656.5 402.1 656.5 404.853V450.721H611.5V404.853ZM265 544.451C258.902 544.451 254.191 549.793 254.971 555.823L258.887 586.088C261.011 585.594 263.225 585.333 265.5 585.333C267.43 585.333 269.316 585.521 271.14 585.879L275.029 555.823C275.809 549.793 271.098 544.451 265 544.451ZM275.92 641.243C286.788 637.069 294.5 626.557 294.5 614.249C294.5 601.391 286.083 590.493 274.443 586.734C282.969 573.887 297.592 565.39 314.24 565.39H749.006C785.73 565.39 815.5 595.075 815.5 631.693C815.5 670.57 782.108 701.105 743.264 697.747L310.122 660.311C296.043 659.094 283.81 651.852 275.92 641.243ZM259.012 642.44C261.098 642.915 263.27 643.166 265.5 643.166C267.386 643.166 269.229 642.987 271.014 642.644L275.029 673.673C275.809 679.703 271.098 685.045 265 685.045C258.902 685.045 254.191 679.703 254.971 673.673L259.012 642.44ZM287.5 614.748C287.5 627.139 277.426 637.183 265 637.183C252.574 637.183 242.5 627.139 242.5 614.748C242.5 602.357 252.574 592.313 265 592.313C277.426 592.313 287.5 602.357 287.5 614.748Z" fill="white"/>
</g>
<defs>
<linearGradient id="paint0_linear_2005_132" x1="162.777" y1="539.499" x2="943.651" y2="539.499" gradientUnits="userSpaceOnUse">
<stop stop-color="#4BA1F2"/>
<stop offset="1" stop-color="#1E89EF"/>
</linearGradient>
<clipPath id="clip0_2005_132">
<rect width="1080" height="1080" fill="white" transform="translate(0.5)"/>
</clipPath>
</defs>
</svg>
