<svg width="181" height="180" viewBox="0 0 181 180" fill="none" xmlns="http://www.w3.org/2000/svg">
<g clip-path="url(#clip0_2005_158)">
<path d="M180.5 90C180.5 139.706 140.206 180 90.5 180C40.7944 180 0.5 139.706 0.5 90C0.5 40.2944 40.7944 0 90.5 0C140.206 0 180.5 40.2944 180.5 90Z" fill="url(#paint0_linear_2005_158)"/>
<path fill-rule="evenodd" clip-rule="evenodd" d="M90.5 150.476C123.821 150.476 150.833 123.475 150.833 90.1669C150.833 56.8589 123.821 29.8575 90.5 29.8575C57.1788 29.8575 30.1667 56.8589 30.1667 90.1669C30.1667 123.475 57.1788 150.476 90.5 150.476ZM90.5 153.142C125.294 153.142 153.5 124.947 153.5 90.1669C153.5 55.3868 125.294 27.1919 90.5 27.1919C55.7061 27.1919 27.5 55.3868 27.5 90.1669C27.5 124.947 55.7061 153.142 90.5 153.142ZM132.487 90.6766C132.496 90.3134 132.5 89.9491 132.5 89.5838C132.5 77.4253 127.555 66.4213 119.566 58.4716C118.824 55.9364 116.616 54.0271 113.921 53.7236C106.762 48.66 98.0205 45.6845 88.5833 45.6845C65.7039 45.6845 46.9109 63.1735 44.8535 85.5071C44.7639 85.5038 44.6738 85.5021 44.5833 85.5021C43.7211 85.5021 42.8989 85.6563 42.1407 85.9374C44.0015 61.9246 64.0837 43.0189 88.5833 43.0189C114.311 43.0189 135.167 63.8667 135.167 89.5838C135.167 90.4866 135.141 91.3835 135.09 92.2736C134.277 91.6644 133.406 91.1287 132.487 90.6766ZM131.945 96.5805C132.817 97.2421 133.588 98.0297 134.231 98.9163C132.928 105.319 130.31 111.245 126.672 116.399C125.899 116.498 125.104 116.516 124.294 116.446L123.382 116.367C127.749 110.706 130.765 103.95 131.945 96.5805ZM111.833 67.8649C112.782 68.7686 113.673 69.732 114.5 70.7491V75.1728H114.402C113.633 73.9559 112.774 72.8019 111.833 71.7202V67.8649ZM101.853 61.4851C98.3491 60.1043 94.5315 59.3458 90.5367 59.3458C73.8906 59.3458 60.3218 72.5159 59.6897 89.0007H62.3585C62.9889 73.9885 75.3635 62.0114 90.5367 62.0114C93.3885 62.0114 96.1416 62.4345 98.7363 63.2214C99.5667 62.3643 100.644 61.7474 101.853 61.4851ZM109.833 69.643C108.671 68.5523 107.416 67.559 106.081 66.6762H109C109.057 66.6762 109.113 66.6819 109.167 66.6929C109.547 66.7701 109.833 67.1062 109.833 67.5092V69.643ZM94.9981 74.4467C93.5944 74.0515 92.1135 73.84 90.5833 73.84C81.9727 73.84 74.9263 80.5345 74.3689 89.0007H77.0426C77.5946 82.0081 83.4461 76.5056 90.5833 76.5056C90.95 76.5056 91.3133 76.5202 91.6727 76.5487C92.7 75.7379 93.8139 75.0319 94.9981 74.4467ZM104.11 91.3331C104.147 90.9216 104.167 90.5048 104.167 90.0836C104.167 85.4098 101.804 81.2876 98.208 78.845C99.2208 78.4292 100.295 78.1329 101.414 77.9738C104.74 80.9482 106.833 85.2715 106.833 90.0836C106.833 90.504 106.817 90.9207 106.786 91.3331H104.11ZM77.6781 94.3319C79.4621 99.7501 84.5658 103.662 90.5833 103.662C96.6009 103.662 101.705 99.7501 103.489 94.3319H106.272C104.404 101.243 98.0875 106.327 90.5833 106.327C83.0792 106.327 76.763 101.243 74.8947 94.3319H77.6781ZM62.6336 94.3319H59.9405C60.8315 100.993 63.8483 106.982 68.2866 111.593L72.6089 111.968C67.3379 107.625 63.6719 101.405 62.6336 94.3319ZM104.458 114.728L108.776 115.102C115.386 110.255 119.994 102.842 121.133 94.3319H118.44C117.155 103.082 111.849 110.526 104.458 114.728ZM118.718 91.3331H118.833V81.6414C118.833 81.2452 118.773 80.8632 118.66 80.504C118.266 79.245 117.235 78.2675 115.943 77.949C117.735 81.6546 118.74 85.8118 118.74 90.2035C118.74 90.5818 118.733 90.9584 118.718 91.3331ZM99.7317 119.669L76.4114 117.649C80.6442 119.83 85.4465 121.061 90.5367 121.061C93.739 121.061 96.8274 120.574 99.7317 119.669ZM49.4227 109.474C48.8635 108.376 48.3491 107.252 47.882 106.103C47.4513 106.487 46.9514 106.794 46.4034 107.005C46.416 107.022 46.4287 107.039 46.4414 107.056C46.4582 107.078 46.475 107.101 46.492 107.123C46.6285 107.3 46.7723 107.471 46.9231 107.636C47.4447 108.206 48.0492 108.701 48.7183 109.1C48.9459 109.236 49.1809 109.361 49.4227 109.474ZM45.6776 98.9922C46.1274 101.051 46.7217 103.056 47.4495 104.996C47.0686 105.447 46.5831 105.807 46.0305 106.038C45.8266 106.123 45.6135 106.191 45.3931 106.239C45.2932 106.261 45.1918 106.279 45.0891 106.293C44.2088 104.005 43.5039 101.63 42.9911 99.1838C43.2538 99.0604 43.5333 98.9667 43.8251 98.9068C44.07 98.8565 44.3236 98.8301 44.5833 98.8301C44.6112 98.8301 44.639 98.8304 44.6667 98.831C44.9102 98.8363 45.1481 98.8648 45.3781 98.9144C45.4795 98.9363 45.5794 98.9623 45.6776 98.9922ZM44.6842 90.8362C44.7499 93.1822 44.9998 95.4822 45.4199 97.7222C45.2728 97.6992 45.1234 97.6828 44.9722 97.6734C44.8712 97.6671 44.7693 97.6639 44.6667 97.6639C44.6388 97.6639 44.6111 97.6641 44.5833 97.6646C44.5648 97.6649 44.5463 97.6653 44.5278 97.6658C44.1973 97.6752 43.8752 97.7176 43.5645 97.7901L42.9119 92.7334C42.9012 92.6503 42.8967 92.5679 42.898 92.4868C42.8991 92.4245 42.9035 92.3629 42.9113 92.3023C43.0158 91.4844 43.7152 90.8333 44.5833 90.8333C44.6172 90.8333 44.6509 90.8343 44.6842 90.8362ZM45.6399 107.66C45.5838 107.527 45.5283 107.393 45.4735 107.26C45.511 107.253 45.5484 107.247 45.5857 107.239L45.6399 107.66ZM50.5027 116.41C50.7009 116.1 50.8752 115.774 51.0233 115.434C51.2284 115.462 51.435 115.485 51.6431 115.503L53.2361 115.641C61.2344 126.464 74.0888 133.483 88.5833 133.483C100.347 133.483 111.031 128.86 118.914 121.331L122.379 121.631C113.89 130.573 101.888 136.149 88.5833 136.149C72.8489 136.149 58.9365 128.351 50.5027 116.41Z" fill="#FFD700"/>
<path fill-rule="evenodd" clip-rule="evenodd" d="M113.167 59.0547C112.43 59.0547 111.833 59.6505 111.833 60.3854V75.1898H114.5V60.3854C114.5 59.6505 113.903 59.0547 113.167 59.0547ZM115.029 77.8513C117.13 77.8513 118.833 79.5513 118.833 81.6484V91.3249H89.8333C89.8333 83.8836 95.8774 77.8513 103.333 77.8513H115.029ZM102.333 67.5381C102.333 67.0788 102.706 66.7064 103.167 66.7064H109C109.46 66.7064 109.833 67.0788 109.833 67.5381V75.1898H102.333V67.5381ZM44.5833 90.8259C43.5669 90.8259 42.7818 91.7171 42.9118 92.7231L43.5644 97.7719C43.9184 97.6895 44.2874 97.6459 44.6666 97.6459C44.9882 97.6459 45.3025 97.6772 45.6066 97.7371L46.2547 92.7231C46.3847 91.7171 45.5996 90.8259 44.5833 90.8259ZM46.4033 106.973C48.2147 106.277 49.4999 104.523 49.4999 102.47C49.4999 100.325 48.0971 98.5067 46.1572 97.8797C47.5782 95.7366 50.0152 94.3191 52.7899 94.3191H125.251C131.372 94.3191 136.333 99.2711 136.333 105.38C136.333 111.865 130.768 116.959 124.294 116.399L52.1036 110.154C49.7571 109.951 47.7182 108.743 46.4033 106.973ZM43.5853 107.173C43.9329 107.252 44.2949 107.294 44.6666 107.294C44.9808 107.294 45.2881 107.264 45.5856 107.207L46.2547 112.383C46.3847 113.389 45.5996 114.28 44.5833 114.28C43.5669 114.28 42.7818 113.389 42.9118 112.383L43.5853 107.173ZM48.3333 102.553C48.3333 104.62 46.6543 106.296 44.5833 106.296C42.5122 106.296 40.8333 104.62 40.8333 102.553C40.8333 100.486 42.5122 98.8103 44.5833 98.8103C46.6543 98.8103 48.3333 100.486 48.3333 102.553Z" fill="#FFD700"/>
</g>
<defs>
<linearGradient id="paint0_linear_2005_158" x1="27.5462" y1="89.9998" x2="157.692" y2="89.9998" gradientUnits="userSpaceOnUse">
<stop stop-color="#454C8A"/>
<stop offset="1" stop-color="#0D1341"/>
</linearGradient>
<clipPath id="clip0_2005_158">
<rect width="180" height="180" fill="white" transform="translate(0.5)"/>
</clipPath>
</defs>
</svg>
